<svg width="197" height="35" viewBox="0 0 197 35" fill="none" xmlns="http://www.w3.org/2000/svg">
<path d="M187.713 12.4848C189.566 14.3395 191.077 17.3728 190.213 19.1717C187.895 23.9936 170.604 32.4444 169.132 30.983C167.666 29.5228 176.161 12.2992 181.002 9.99013C182.811 9.13349 185.857 10.6521 187.719 12.4822L187.712 12.5003V12.4848H187.713ZM196.876 10.4522C196.575 9.34246 195.806 8.22363 194.66 8.08995C192.561 7.84853 189.248 11.5464 189.483 12.4238C189.719 13.3193 194.393 14.8574 196.132 13.6114C197.033 12.9702 197.15 11.5866 196.857 10.4781L196.876 10.4522ZM190.369 0.204983C191.931 0.625514 193.507 1.69501 193.695 3.29667C194.035 6.22871 188.829 10.8494 187.594 10.5184C186.358 10.1926 184.18 3.66009 185.939 1.22256C186.845 -0.0390294 188.809 -0.212953 190.371 0.199791V0.204983H190.369Z" fill="white"/>
<path d="M20.7094 27.4131C18.7282 27.4131 16.934 26.9832 15.3266 26.1235C13.7379 25.245 12.4857 24.0395 11.5698 22.5069C10.6727 20.9743 10.2242 19.2455 10.2242 17.3204C10.2242 15.3953 10.6821 13.6664 11.5979 12.1338C12.5137 10.6012 13.766 9.40503 15.3546 8.54528C16.962 7.66684 18.7563 7.22762 20.7374 7.22762C22.3448 7.22762 23.812 7.50797 25.139 8.06868C26.466 8.62939 27.5874 9.44241 28.5032 10.5078L26.1483 12.7226C24.7278 11.19 22.9803 10.4237 20.9056 10.4237C19.5599 10.4237 18.3544 10.7227 17.2891 11.3208C16.2237 11.9002 15.392 12.7132 14.7939 13.7599C14.1958 14.8065 13.8968 15.9934 13.8968 17.3204C13.8968 18.6474 14.1958 19.8342 14.7939 20.8809C15.392 21.9275 16.2237 22.7499 17.2891 23.348C18.3544 23.9274 19.5599 24.2171 20.9056 24.2171C22.9803 24.2171 24.7278 23.4414 26.1483 21.8901L28.5032 24.133C27.5874 25.1983 26.4566 26.0113 25.1109 26.572C23.7839 27.1328 22.3168 27.4131 20.7094 27.4131ZM31.659 12.1618H35.1634V27.1328H31.659V12.1618ZM33.4252 9.69473C32.7897 9.69473 32.2571 9.49849 31.8272 9.10599C31.3973 8.6948 31.1824 8.19017 31.1824 7.59208C31.1824 6.99399 31.3973 6.4987 31.8272 6.1062C32.2571 5.69502 32.7897 5.48942 33.4252 5.48942C34.0607 5.48942 34.5933 5.68567 35.0232 6.07817C35.4531 6.45197 35.668 6.92857 35.668 7.50797C35.668 8.12475 35.4531 8.64808 35.0232 9.07795C34.612 9.48914 34.0794 9.69473 33.4252 9.69473ZM54.3974 12.1618V27.1328H51.0612V25.1983C50.4818 25.9085 49.7622 26.4412 48.9025 26.7963C48.0614 27.1514 47.1269 27.329 46.0989 27.329C44.6411 27.329 43.3328 27.0113 42.174 26.3758C41.0339 25.7403 40.1368 24.8432 39.4826 23.6844C38.8471 22.5256 38.5294 21.1799 38.5294 19.6473C38.5294 18.1147 38.8471 16.7783 39.4826 15.6382C40.1368 14.4794 41.0339 13.5823 42.174 12.9468C43.3328 12.3114 44.6411 11.9936 46.0989 11.9936C47.0708 11.9936 47.9586 12.1618 48.7623 12.4983C49.5847 12.8347 50.2949 13.33 50.893 13.9841V12.1618H54.3974ZM46.4914 24.3292C47.7811 24.3292 48.8464 23.8993 49.6875 23.0396C50.5285 22.1798 50.9491 21.0491 50.9491 19.6473C50.9491 18.2455 50.5285 17.1148 49.6875 16.255C48.8464 15.3953 47.7811 14.9654 46.4914 14.9654C45.2018 14.9654 44.1365 15.3953 43.2954 16.255C42.473 17.1148 42.0618 18.2455 42.0618 19.6473C42.0618 21.0491 42.473 22.1798 43.2954 23.0396C44.1365 23.8993 45.2018 24.3292 46.4914 24.3292ZM65.711 27.329C64.1971 27.329 62.8327 27.0019 61.6179 26.3478C60.403 25.6936 59.4498 24.7871 58.7582 23.6283C58.0854 22.4508 57.749 21.1238 57.749 19.6473C57.749 18.1708 58.0854 16.8531 58.7582 15.6943C59.4498 14.5355 60.403 13.629 61.6179 12.9749C62.8327 12.3207 64.1971 11.9936 65.711 11.9936C67.2436 11.9936 68.6174 12.3207 69.8322 12.9749C71.0471 13.629 71.991 14.5355 72.6638 15.6943C73.3553 16.8531 73.7011 18.1708 73.7011 19.6473C73.7011 21.1238 73.3553 22.4508 72.6638 23.6283C71.991 24.7871 71.0471 25.6936 69.8322 26.3478C68.6174 27.0019 67.2436 27.329 65.711 27.329ZM65.711 24.3292C67.0007 24.3292 68.066 23.8993 68.9071 23.0396C69.7481 22.1798 70.1687 21.0491 70.1687 19.6473C70.1687 18.2455 69.7481 17.1148 68.9071 16.255C68.066 15.3953 67.0007 14.9654 65.711 14.9654C64.4214 14.9654 63.356 15.3953 62.515 16.255C61.6926 17.1148 61.2814 18.2455 61.2814 19.6473C61.2814 21.0491 61.6926 22.1798 62.515 23.0396C63.356 23.8993 64.4214 24.3292 65.711 24.3292ZM86.4721 27.4131C84.4909 27.4131 82.6967 26.9832 81.0893 26.1235C79.5006 25.245 78.2484 24.0395 77.3326 22.5069C76.4354 20.9743 75.9869 19.2455 75.9869 17.3204C75.9869 15.3953 76.4448 13.6664 77.3606 12.1338C78.2764 10.6012 79.5287 9.40503 81.1173 8.54528C82.7247 7.66684 84.519 7.22762 86.5001 7.22762C88.1075 7.22762 89.5747 7.50797 90.9017 8.06868C92.2287 8.62939 93.3501 9.44241 94.2659 10.5078L91.911 12.7226C90.4905 11.19 88.743 10.4237 86.6684 10.4237C85.3227 10.4237 84.1171 10.7227 83.0518 11.3208C81.9864 11.9002 81.1547 12.7132 80.5566 13.7599C79.9586 14.8065 79.6595 15.9934 79.6595 17.3204C79.6595 18.6474 79.9586 19.8342 80.5566 20.8809C81.1547 21.9275 81.9864 22.7499 83.0518 23.348C84.1171 23.9274 85.3227 24.2171 86.6684 24.2171C88.743 24.2171 90.4905 23.4414 91.911 21.8901L94.2659 24.133C93.3501 25.1983 92.2194 26.0113 90.8737 26.572C89.5467 27.1328 88.0795 27.4131 86.4721 27.4131ZM105.916 11.9936C107.804 11.9936 109.318 12.545 110.458 13.6477C111.598 14.7504 112.168 16.3858 112.168 18.5539V27.1328H108.664V19.0025C108.664 17.6942 108.355 16.7129 107.739 16.0588C107.122 15.3859 106.243 15.0495 105.103 15.0495C103.814 15.0495 102.795 15.442 102.048 16.227C101.3 16.9933 100.926 18.1054 100.926 19.5632V27.1328H97.4217V6.33048H100.926V13.9C101.506 13.2833 102.216 12.816 103.057 12.4983C103.917 12.1618 104.87 11.9936 105.916 11.9936ZM123.479 27.329C121.965 27.329 120.601 27.0019 119.386 26.3478C118.171 25.6936 117.218 24.7871 116.526 23.6283C115.854 22.4508 115.517 21.1238 115.517 19.6473C115.517 18.1708 115.854 16.8531 116.526 15.6943C117.218 14.5355 118.171 13.629 119.386 12.9749C120.601 12.3207 121.965 11.9936 123.479 11.9936C125.012 11.9936 126.386 12.3207 127.6 12.9749C128.815 13.629 129.759 14.5355 130.432 15.6943C131.124 16.8531 131.469 18.1708 131.469 19.6473C131.469 21.1238 131.124 22.4508 130.432 23.6283C129.759 24.7871 128.815 25.6936 127.6 26.3478C126.386 27.0019 125.012 27.329 123.479 27.329ZM123.479 24.3292C124.769 24.3292 125.834 23.8993 126.675 23.0396C127.516 22.1798 127.937 21.0491 127.937 19.6473C127.937 18.2455 127.516 17.1148 126.675 16.255C125.834 15.3953 124.769 14.9654 123.479 14.9654C122.19 14.9654 121.124 15.3953 120.283 16.255C119.461 17.1148 119.05 18.2455 119.05 19.6473C119.05 21.0491 119.461 22.1798 120.283 23.0396C121.124 23.8993 122.19 24.3292 123.479 24.3292ZM157.838 12.1618V20.4323C157.838 22.6191 157.267 24.3199 156.127 25.5347C154.987 26.7309 153.352 27.329 151.221 27.329C148.922 27.329 147.268 26.5534 146.259 25.0021C145.736 25.7871 145.063 26.3758 144.24 26.7683C143.437 27.1421 142.455 27.329 141.297 27.329C139.166 27.329 137.531 26.7309 136.39 25.5347C135.269 24.3199 134.708 22.6191 134.708 20.4323V12.1618H138.213V20.1239C138.213 21.5444 138.456 22.591 138.942 23.2639C139.446 23.9367 140.241 24.2731 141.325 24.2731C142.409 24.2731 143.212 23.9367 143.736 23.2639C144.259 22.5723 144.521 21.5257 144.521 20.1239V12.1618H148.025V20.1239C148.025 21.5257 148.287 22.5723 148.81 23.2639C149.333 23.9367 150.137 24.2731 151.221 24.2731C152.305 24.2731 153.09 23.9367 153.576 23.2639C154.081 22.591 154.333 21.5444 154.333 20.1239V12.1618H157.838Z" fill="white"/>
</svg>
