<svg viewBox="0 0 129 317" fill="none" xmlns="http://www.w3.org/2000/svg">
<path d="M129 308.188C129 308.188 100.122 316.303 64.4999 316.303C28.8775 316.303 0 308.188 0 308.188C0 308.188 28.8775 300.073 64.4999 300.073C100.122 300.073 129 308.188 129 308.188Z" fill="#CBB59B"/>
<path d="M86.9212 54.8258C86.9212 54.8258 91.7479 55.8544 92.4292 56.5863C94.2612 58.5532 100.741 100.586 100.741 100.586L88.9837 101.428L83.6887 58.935L86.9212 54.8258Z" fill="#F574A9"/>
<path d="M105.31 300.668L71.4647 301.688C71.4241 298.013 71.5311 294.923 71.6058 293.26C71.9276 293.279 72.2752 293.288 72.6218 293.288C73.3004 293.306 74.0113 293.326 74.7138 293.336C76.9128 293.364 78.9716 293.336 79.4344 293.165C80.5169 292.778 82.7822 284.775 82.7822 284.775V284.765L83.2865 284.737L86.3208 284.557C86.9579 286.115 88.6027 289.782 90.4541 291.464C92.8522 293.628 101.673 297.427 104.078 298.646C104.905 299.072 105.212 299.931 105.31 300.668Z" fill="#DCDDDA"/>
<path d="M105.426 304.93L71.5975 305.95C71.5311 304.477 71.4896 303.04 71.4647 301.688L105.31 300.668L105.426 304.93Z" fill="white"/>
<path d="M51.1117 305.817C51.1117 307.518 39.612 310.94 37.4129 310.722C35.222 310.515 27.1866 303.9 27.1866 303.9C27.1866 303.9 27.5007 302.549 28.0049 300.451C28.5588 298.127 29.3443 294.904 30.2041 291.597C31.3447 291.266 32.6592 290.832 32.9816 290.528C33.5686 289.962 35.3376 285.247 36.2226 285.247C37.1071 285.247 44.7622 285.247 45.2585 286.04C45.7465 286.825 45.9442 290.755 46.7301 291.2C47.069 291.398 48.0857 291.71 49.111 291.984C49.706 295.329 50.2516 298.599 50.516 300.555C50.8636 303.106 51.1117 305.223 51.1117 305.817Z" fill="#DCDDDA"/>
<path d="M27.1841 303.903C27.1841 303.903 35.2234 310.512 37.4154 310.726C39.608 310.936 51.1156 307.526 51.1156 305.819C51.1156 305.221 50.8671 303.106 50.5159 300.555C46.7714 302.268 38.7508 305.66 36.1051 304.551C34.3105 303.797 30.8947 302.008 28.0005 300.449C27.4977 302.548 27.1841 303.903 27.1841 303.903Z" fill="white"/>
<path d="M99.0261 291.982L68.3922 294.75L64.2155 295.131C63.5385 281.01 66.0782 236.102 66.6909 230.48C66.7154 230.308 66.7315 230.169 66.7474 230.073C67.6025 224.625 70.0127 210.07 70.0127 210.07L67.2394 167.27L67.2311 167.392C66.9891 170.003 63.2154 211.692 62.772 214.477C62.4418 216.498 59.6193 273.437 56.7485 291.982L25.6236 292.92L19.1243 293.119C20.0516 280.567 31.9612 239.693 34.2997 231.34C34.4769 230.741 34.59 230.308 34.6544 230.073C36.1221 224.287 42.7183 204.857 42.7183 204.857C42.7183 204.857 38.1782 162.76 39.1459 158.067C40.1133 153.382 42.7183 140.285 42.7183 140.285C42.7183 140.285 51.443 143.234 55.418 143.729C59.4017 144.239 83.1244 143.06 83.1244 143.06L91.7607 140.285C91.7607 140.285 92.018 142.973 92.3978 146.556C92.8653 150.859 93.5264 156.444 94.1718 160.174C95.3491 167.019 91.0425 216.091 91.0425 216.091L99.0261 291.982Z" fill="#46689C"/>
<path d="M92.3978 146.556C89.7453 147.406 85.2616 148.785 84.4475 148.785C83.2692 148.785 57.6359 150.806 56.3051 150.13C54.983 149.461 45.6936 148.62 45.6936 148.62C45.6936 148.62 42.2505 165.119 42.7183 167.982C43.1937 170.844 46.4355 204.188 46.4355 204.188C46.4355 204.188 40.5412 226.083 39.7993 232.823C39.4121 236.362 28.4134 275.519 25.6236 292.92L19.1243 293.119C20.0516 280.567 31.9612 239.693 34.2997 231.34C34.4769 230.741 34.59 230.308 34.6544 230.072C36.1221 224.287 42.7183 204.857 42.7183 204.857C42.7183 204.857 38.1782 162.76 39.1459 158.067C40.1133 153.382 42.7183 140.285 42.7183 140.285C42.7183 140.285 51.443 143.234 55.418 143.729C59.4017 144.239 83.1244 143.06 83.1244 143.06L91.7607 140.285C91.7607 140.285 92.018 142.973 92.3978 146.556Z" fill="#2C507E"/>
<path d="M73.6417 208.344C73.6417 208.344 68.6101 227.41 68.6746 229.666C68.707 230.853 67.7151 274.876 68.3922 294.75L64.2155 295.131C63.5384 281.01 66.0782 236.102 66.6912 230.48C66.7154 230.308 66.7315 230.169 66.7474 230.073C67.6024 224.625 70.0127 210.07 70.0127 210.07L67.2393 167.27L75.6092 163.662L69.9085 171.963L73.6417 208.344Z" fill="#2C507E"/>
<path d="M54.1905 53.8429L41.2218 57.9412L44.6706 104.326L38.1561 161.204C38.1561 161.204 80.0227 169.449 94.6805 159.246L87.4954 106.806C87.4954 106.806 94.1061 95.8624 94.6805 89.0603C95.2559 82.2582 86.921 54.8258 86.921 54.8258L79.6087 54.2228L54.1905 53.8429Z" fill="#F574A9"/>
<path d="M81.0204 17.3273C80.6738 23.5818 77.5851 29.4019 73.5292 34.0259C69.4652 38.6399 65.6962 43.2629 60.7368 46.8028C59.1245 45.4926 47.315 36.7495 45.3229 31.5096C44.8954 30.4255 44.5407 29.3067 44.2666 28.1621C41.2431 15.7135 46.2986 5.31306 57.4022 1.33181C61.6678 -0.20356 69.2476 -0.724304 73.2388 1.47957C77.0688 3.59517 79.6098 7.65578 80.5926 12.0963C80.9716 13.8141 81.1173 15.5836 81.0204 17.3273Z" fill="#300C21"/>
<path d="M79.6097 54.2228L71.2675 50.8713L70.1454 50.1414L69.5284 50.1652L61.1263 50.5004L60.4464 50.5272L59.4456 51.0826L54.1906 53.8429C56.9352 58.451 63.1368 67.9191 67.8796 67.7267C72.4808 67.5403 77.005 59.2723 79.6097 54.2228Z" fill="#C7614F"/>
<path d="M58.5563 51.5756C58.5563 51.5756 67.4532 53.5106 68.7771 52.8987C70.102 52.2947 71.9193 51.2968 71.9193 51.2968C71.6215 50.9398 69.5659 47.5933 69.6123 46.4576C69.7197 43.8382 70.4376 40.1565 70.4376 40.1565L62.1686 37.5817C62.1686 37.5817 61.9486 40.1019 61.6022 42.7749C61.2527 45.4837 59.053 51.1372 58.5563 51.5756Z" fill="#C7614F"/>
<path d="M61.6031 42.771C63.9208 44.4462 66.7649 46.4229 67.6772 46.7036C68.4219 46.9307 69.0976 46.7344 69.6094 46.4576C69.721 43.8362 70.4404 40.1585 70.4404 40.1585L62.1708 37.5826C62.1708 37.5826 61.9471 40.1069 61.6031 42.771Z" fill="#974237"/>
<path d="M56.5516 13.3013C60.7568 7.57146 68.1551 5.52132 74.1938 8.85292C75.5823 9.61862 76.7044 10.5122 77.2382 11.5338C79.3717 15.6202 82.8504 30.8926 80.2236 38.4634C77.5959 46.0351 72.8726 45.2694 71.1825 44.838C69.4923 44.4055 61.5026 41.3149 59.5662 38.6657C57.6289 36.0175 53.0924 22.0533 53.7856 18.3141C54.0172 17.0653 55.1481 15.2136 56.5516 13.3013Z" fill="#E27062"/>
<path d="M55.9667 12.2182C60.1718 6.48834 67.5697 4.43924 73.6095 7.76984C74.998 8.53555 76.1201 9.42917 76.653 10.4508C78.7865 14.5372 82.2652 29.8096 79.6384 37.3813C77.0107 44.952 72.2873 44.1873 70.5973 43.7548C68.908 43.3224 60.918 40.2318 58.9811 37.5826C57.0446 34.9344 52.5073 20.9712 53.2007 17.231C53.4326 15.9823 54.5631 14.1315 55.9667 12.2182Z" fill="#C7614F"/>
<path d="M71.8595 30.7488C71.4981 30.7072 71.1228 30.6001 70.7808 30.731C71.3275 31.4997 72.1647 32.0214 73.0562 32.1493L73.2628 32.1464L73.4711 31.9946C73.8556 31.5909 74.1654 31.1049 74.3765 30.5743C74.4199 30.4662 74.4586 30.3531 74.4577 30.2361C74.454 29.8492 74.2382 29.9911 74.0557 30.1309C73.8436 30.2926 73.6122 30.4255 73.3697 30.5267C72.8921 30.727 72.3694 30.8083 71.8595 30.7488Z" fill="#E27062"/>
<path d="M73.0803 31.9202C73.2425 31.6653 73.4371 31.4342 73.6049 31.1832C73.8123 30.8728 73.9977 30.5455 74.1452 30.1974C72.8498 29.6717 72.5759 28.425 72.3058 27.0017C72.1841 26.359 72.2044 25.6875 72.3648 25.0557C72.4478 24.7234 72.5695 24.402 72.7262 24.1015C72.8055 23.9488 72.8931 23.802 72.989 23.6602C73.083 23.5223 73.1918 23.43 73.32 23.3299C73.2711 23.432 73.2472 23.5411 73.2047 23.6443C73.0959 23.9121 72.9752 24.167 72.8931 24.4467C72.8101 24.7273 72.7502 25.016 72.7124 25.3076C72.6377 25.8898 72.6525 26.4879 72.765 27.0641C72.8747 27.6295 73.0812 28.175 73.3919 28.6471C73.7469 29.1867 74.2687 29.6757 74.8533 29.8899C74.8588 29.8919 74.3148 31.0394 74.2577 31.1356C74.1111 31.3856 73.9433 31.6217 73.7524 31.8349C73.5662 32.0442 73.3532 32.2912 73.0803 32.3517C72.9945 32.3705 72.9033 32.3725 72.8221 32.3388L72.9254 32.191L72.9641 32.1216L73.0803 31.9202Z" fill="#974237"/>
<path d="M66.1609 34.5654C69.0057 36.0611 72.4608 36.1435 75.3641 34.7836C73.971 35.951 72.3972 36.7306 70.6315 36.7098C68.866 36.689 67.5295 35.7656 66.1609 34.5654Z" fill="#974237"/>
<path d="M69.0425 37.7056C70.2342 38.4009 71.7435 38.4217 72.9503 37.7602C72.5106 38.4277 71.8716 38.8671 71.1119 38.9058C70.3531 38.9455 69.5394 38.3246 69.0425 37.7056Z" fill="#974237"/>
<path d="M58.4502 31.0395C58.0226 30.8471 55.7707 27.9995 54.3819 29.8909C52.9934 31.7824 52.7461 34.7896 54.2252 36.3835C55.5754 37.8375 57.4309 39.3839 59.5663 38.6658L58.4502 31.0395Z" fill="#C7614F"/>
<path d="M54.5425 32.1672C54.477 32.5709 54.558 32.9805 54.6952 33.3653C55.2791 34.9989 56.809 36.1722 58.2716 37.2583C57.8037 36.4787 57.5959 35.5762 57.6291 34.6805C57.641 34.3691 57.6809 34.0586 57.665 33.7472C57.6021 32.4965 54.93 29.7818 54.5425 32.1672Z" fill="#E27062"/>
<path d="M58.999 37.6848L58.9169 37.6392C58.8643 37.6075 58.78 37.5668 58.6834 37.5013C58.4883 37.3714 58.2171 37.1601 57.9542 36.8378C57.6923 36.5164 57.4467 36.08 57.311 35.5524C57.1856 35.0257 57.1687 34.4038 57.3834 33.7888L57.4716 33.5627L57.496 33.5072L57.4993 33.5012L57.499 33.5032L57.5003 33.5022H57.5007L57.496 33.4933L57.4705 33.4476L57.4179 33.3554L57.3099 33.1759C57.164 32.9408 57.008 32.7217 56.8492 32.5183C56.6904 32.316 56.5276 32.1295 56.3669 31.9609C56.2056 31.7923 56.0508 31.6356 55.8988 31.5215C55.7475 31.4064 55.5844 31.336 55.4349 31.3241C55.2851 31.3152 55.1468 31.3638 55.0553 31.4233C54.9627 31.4848 54.9141 31.5582 54.895 31.6127L54.8752 31.6971L54.8745 31.6088C54.8806 31.5493 54.9141 31.459 55.0045 31.3717C55.0949 31.2864 55.239 31.2021 55.4353 31.1833C55.6316 31.1674 55.848 31.2289 56.0439 31.338C56.242 31.4481 56.4221 31.589 56.6126 31.7457C56.802 31.9034 56.9947 32.0829 57.1816 32.2842C57.3686 32.4856 57.5508 32.7087 57.7183 32.9527L57.8414 33.1392L57.9009 33.2354L57.9801 33.3723L58.0352 33.4675L57.9934 33.5696L57.9307 33.7164L57.8551 33.9118C57.6682 34.4464 57.652 34.9919 57.7215 35.4769C57.8004 35.961 57.9693 36.3845 58.1641 36.7158C58.3597 37.048 58.5751 37.2901 58.7354 37.4488L58.9294 37.6233L58.999 37.6848Z" fill="#974237"/>
<path d="M78.8511 19.1215C78.8511 19.1215 76.7047 17.5276 75.4231 17.7329C74.1397 17.9392 73.8142 19.2335 74.3342 19.4567C74.8552 19.6799 78.8511 19.1215 78.8511 19.1215Z" fill="#470A27"/>
<path d="M60.7369 22.3162C60.7369 22.3162 63.5713 19.3358 65.5518 18.8131C67.5323 18.2904 68.3423 19.5054 67.6155 20.0509C66.8884 20.5974 60.7369 22.3162 60.7369 22.3162Z" fill="#470A27"/>
<path d="M66.4643 31.8458C66.4157 32.5104 65.0543 32.9359 63.4238 32.798C61.7935 32.6592 60.5114 32.0095 60.5603 31.345C60.6089 30.6804 61.97 30.2539 63.6003 30.3928C65.2311 30.5317 66.5133 31.1823 66.4643 31.8458Z" fill="#E27062"/>
<path d="M82.0787 27.571C82.3009 28.0154 81.4721 28.9586 80.2274 29.6787C78.9827 30.3978 77.7933 30.6209 77.572 30.1766C77.3489 29.7332 78.1787 28.789 79.4234 28.0689C80.6681 27.3489 81.8575 27.1257 82.0787 27.571Z" fill="#E27062"/>
<path d="M53.2255 33.6421C50.8021 30.1825 48.5179 25.7351 47.8423 21.4642C47.1677 17.1934 47.8495 12.5743 50.2218 9.07314C52.3719 5.90123 55.7261 3.86897 59.2177 2.72636C64.1965 1.09776 69.8745 1.20684 74.3084 4.13872C78.7413 7.06862 81.4815 13.1943 79.8662 18.5155C78.4887 16.4217 76.5276 14.7782 74.3038 13.8538C74.1443 14.8645 73.7764 15.8365 73.2343 16.6796C72.7797 15.1462 72.008 13.7219 70.9911 12.5406C70.7412 14.2267 69.7753 15.774 68.4193 16.6598C68.2263 15.0341 67.632 13.467 66.7133 12.1598C65.8979 14.5065 64.2531 16.506 62.1872 17.6625C62.1898 16.14 62.1915 14.6176 62.1934 13.0951C61.6179 16.5239 59.52 19.6204 56.6614 21.2599C56.6614 21.2599 57.2222 29.0657 56.9175 30.4057C56.9175 30.4057 55.6746 29.4059 54.5192 30.367C53.3646 31.3271 53.2255 33.6421 53.2255 33.6421Z" fill="#300C21"/>
<path d="M65.5921 24.5171C64.2732 24.6956 63.1045 25.5873 62.2837 26.713C64.1893 25.9791 66.3448 25.7887 68.3318 26.2062L68.9628 26.2677C68.3609 24.9922 66.9116 24.3386 65.5921 24.5171Z" fill="#121414"/>
<path d="M76.7203 23.192C77.6303 22.9926 78.5892 23.3021 79.3664 23.8496C77.953 23.8228 76.487 24.2146 75.258 24.9684L74.8533 25.1608C74.987 24.1719 75.8103 23.3903 76.7203 23.192Z" fill="#121414"/>
<path d="M72.1261 6.36342C72.529 7.44751 72.529 8.69625 72.1187 9.7724C71.0778 7.76789 69.3846 6.17198 67.4091 5.3309C67.8121 6.82263 67.9652 8.39272 67.8687 9.94495C66.7724 8.21915 65.0386 6.98727 63.1355 6.56276C63.5303 8.19335 63.4903 9.93704 63.0145 11.5329C62.0871 9.6504 60.5064 8.14972 58.652 7.38699C57.9829 14.2743 53.6851 20.9713 48.0325 24.2761C46.8311 26.5395 45.9116 28.9774 45.323 31.5096C44.8955 30.4255 44.5408 29.3067 44.2667 28.1621C43.6541 25.6547 43.3797 23.2347 43.4121 20.9267C43.5248 11.7848 48.5324 4.51562 57.4023 1.33181C61.6679 -0.203562 69.2477 -0.724304 73.2389 1.47957C75.271 2.6063 76.9481 4.2726 78.1983 6.26719C79.3268 8.01978 80.1336 10.0154 80.5927 12.0963C78.1172 9.6593 75.2387 7.69844 72.1261 6.36342Z" fill="#470A27"/>
<path d="M69.5619 4.90538C68.1587 3.30951 66.1667 2.32956 64.1271 2.22542C64.2964 3.20536 64.4657 4.18531 64.635 5.16525C63.5059 4.1506 62.0469 3.55253 60.571 3.51782C60.6272 4.40254 60.6838 5.28724 60.7403 6.17196C59.4743 5.00953 57.8375 4.32419 56.1681 4.26369C55.1284 11.7412 49.9836 18.325 43.4119 20.9266C43.5245 11.7848 48.5322 4.51561 57.402 1.33179C61.6676 -0.203579 69.2474 -0.724321 73.2387 1.47955C75.2707 2.60629 76.9478 4.27258 78.1981 6.26718C75.3592 4.63659 72.2715 3.49995 69.1019 2.9108C69.255 3.57831 69.4088 4.23787 69.5619 4.90538Z" fill="#630D30"/>
<path d="M41.2218 57.9412C41.2218 57.9412 32.5039 62.0573 31.3539 64.9436C30.2043 67.8298 22.5403 108.046 22.157 110.095C22.157 110.095 41.8924 115.444 48.7904 112.971L49.7484 89.8854L41.2218 57.9412Z" fill="#F574A9"/>
<path d="M41.2217 62.3152C41.2217 62.3152 49.9399 76.2288 49.7483 78.2383C49.5571 80.2487 45.4865 109.096 45.4865 109.096C45.4865 109.096 52.7181 80.8667 51.856 77.9298C50.9941 74.992 41.2217 62.3152 41.2217 62.3152Z" fill="#F14A8F"/>
<path d="M57.7135 80.709C54.762 86.7295 42.5463 88.5505 41.9006 88.6378L41.8768 88.6467C41.8768 88.6467 44.8445 82.3574 46.0697 77.6124C47.2957 72.8764 37.2802 55.9704 40.7318 49.0652C44.1749 42.16 50.8673 37.546 50.8673 37.546L51.4241 38.0825L52.287 38.9078L52.4725 39.0803L53.714 40.2428L51.6903 45.5253C51.6903 45.5253 57.8748 53.1943 58.4954 55.1809C59.1163 57.1666 60.7535 74.5248 57.7135 80.709Z" fill="#300C21"/>
<path d="M52.3353 82.4616C50.8349 84.3609 42.4249 88.3858 41.9006 88.6378L41.8768 88.6467C41.8768 88.6467 44.8445 82.3574 46.0697 77.6124C47.2957 72.8764 37.2802 55.9704 40.7318 49.0652C44.1749 42.16 50.8677 37.546 50.8677 37.546L51.4241 38.0825L52.287 38.9078L52.4725 39.0803C51.4965 40.7813 49.6662 43.7132 48.9646 45.5253C47.7228 48.7607 53.2785 56.0656 53.2785 59.3179C53.2785 62.5711 53.8833 80.5017 52.3353 82.4616Z" fill="#470A27"/>
<path d="M49.3517 67.5155C49.7303 70.4037 49.1663 79.6774 48.4892 81.2208C47.8197 82.7651 41.8768 88.6467 41.8768 88.6467C41.8768 88.6467 44.8445 82.3574 46.0697 77.6124C47.2957 72.8764 37.2802 55.9704 40.7318 49.0652C44.1749 42.16 50.8677 37.546 50.8677 37.546L51.4241 38.0825C48.3275 41.9259 42.9652 48.9869 42.8358 50.2277C42.6429 52.0576 48.9646 64.6272 49.3517 67.5155Z" fill="#630D30"/>
<path d="M72.3067 97.3997L57.6089 98.3677C57.6089 98.3677 51.0469 63.072 55.0266 52.9542C55.6242 51.4248 56.4651 50.4746 57.6089 50.303C62.1015 49.6325 65.8706 62.1942 68.4611 74.5119C70.9007 86.0689 72.3067 97.3997 72.3067 97.3997Z" fill="#FAB663"/>
<path d="M64.0467 64.5092C61.6017 62.6654 58.763 61.4295 55.814 60.9247C58.1359 63.3765 60.7963 64.6808 64.0467 64.5092Z" fill="#F7923D"/>
<path d="M64.9252 73.5032C62.4801 71.6594 59.6417 70.4226 56.6927 69.9177C59.0147 72.3705 61.6748 73.6748 64.9252 73.5032Z" fill="#F7923D"/>
<path d="M65.8789 82.9039C63.4338 81.0601 60.5947 79.8232 57.6461 79.3184C59.9677 81.7712 62.6281 83.0745 65.8789 82.9039Z" fill="#F7923D"/>
<path d="M68.4611 74.5118C68.0826 73.154 67.7293 71.7873 67.3684 70.4304C66.2829 66.4115 65.0548 62.3479 62.7916 58.9459C60.8899 56.1042 58.1477 53.7595 55.0266 52.9542C55.6242 51.4247 56.4651 50.4745 57.6089 50.3029C62.1015 49.6325 65.8706 62.1942 68.4611 74.5118Z" fill="#F7923D"/>
<path d="M77.0806 87.6529C77.0262 90.7583 76.9654 93.5722 76.923 95.4388C76.8925 96.7352 76.1015 97.7627 75.1352 97.7627H65.7497C64.7827 97.7627 63.9921 96.7352 63.9615 95.4388C63.9187 93.5722 63.8581 90.7583 63.8034 87.6529C63.7364 83.869 63.6878 79.6616 63.7 76.2209C63.7181 72.5273 63.8034 69.7303 64.0162 69.274C64.734 67.7813 67.1788 66.2905 67.1788 66.2905L67.7565 53.8231H73.1216L73.7052 66.2905C73.7052 66.2905 76.1503 67.7813 76.8676 69.274C77.0806 69.7303 77.1664 72.5273 77.1783 76.2209C77.1968 79.6616 77.1479 83.869 77.0806 87.6529Z" fill="#2EAE7D"/>
<path d="M73.1898 54.8705H67.6942C67.2933 54.8705 66.9685 54.5214 66.9685 54.0899V53.4175C66.9685 52.985 67.2933 52.6359 67.6942 52.6359H73.1898C73.59 52.6359 73.9154 52.985 73.9154 53.4175V54.0899C73.9154 54.5214 73.59 54.8705 73.1898 54.8705Z" fill="#363950"/>
<path d="M77.0806 87.6528H63.8034C63.7364 83.869 63.6878 79.6616 63.7 76.2209H77.1783C77.1968 79.6616 77.1479 83.869 77.0806 87.6528Z" fill="#20795A"/>
<path d="M97.9871 64.0152C98.189 62.703 98.3181 61.3343 97.9631 60.0607C97.6081 58.7852 96.6659 57.6208 95.4415 57.4284C93.8446 57.1775 92.4201 58.6067 91.6889 60.155C90.7568 62.1287 90.518 64.414 90.6674 66.6228C90.8029 68.6243 91.1864 75.6218 93.8685 74.0785C96.4547 72.5907 97.563 66.7716 97.9871 64.0152Z" fill="#20795A"/>
<path d="M91.6298 81.2693L92.4983 81.1682C92.6384 80.6108 94.0565 74.4425 94.1782 73.8752C94.8955 70.486 95.2458 67.0037 95.2126 63.5183C95.2108 62.9589 94.4004 62.952 94.4068 63.5104C94.4391 67.1485 94.0537 70.7667 93.2599 74.2858C93.1547 74.747 91.7533 80.8111 91.6298 81.2693Z" fill="#51C292"/>
<path d="M104.371 64.1679C105.342 63.3447 106.394 62.5631 107.602 62.2824C108.811 62.0017 110.215 62.3271 110.962 63.3873C111.938 64.771 111.461 66.8042 110.554 68.2394C109.396 70.0694 107.651 71.3975 105.78 72.3229C104.084 73.161 98.2026 76.1761 98.1648 72.9041C98.1279 69.75 102.331 65.8977 104.371 64.1679Z" fill="#20795A"/>
<path d="M92.7924 81.3487L92.867 81.3388L94.0241 81.1959L94.0527 81.19C94.5589 80.6316 97.7619 74.1043 98.2874 73.5855C100.772 71.1327 103.533 69.0231 106.505 67.3002C106.964 67.0314 106.572 66.2757 106.111 66.5375C103.262 68.1899 100.595 70.1974 98.186 72.5134C97.2447 73.412 93.6517 80.3588 92.7924 81.3487Z" fill="#51C292"/>
<path d="M94.8707 67.4886C95.9909 67.8507 97.1093 68.3545 97.9363 69.2452C99.052 70.4473 99.4991 72.2445 99.3627 73.9366C99.0732 77.5261 96.0822 80.6325 92.7381 80.817C89.5775 80.9926 86.2639 78.3453 85.2497 75.1298C84.371 72.3447 86.4335 68.5083 88.8187 67.444C90.7319 66.59 92.9373 66.8648 94.8707 67.4886Z" fill="#E83847"/>
<path d="M93.293 69.3097C93.5336 66.6982 94.416 64.1581 95.8248 62.0147C96.1825 62.2914 96.4941 62.6307 96.8519 62.9074C95.7759 65.0855 94.1301 67.0136 93.293 69.3097Z" fill="#312A2A"/>
<path d="M93.3891 68.7681C93.8833 67.1455 93.7265 65.3066 92.9659 63.8069C92.2062 62.3083 90.8527 61.1706 89.3166 60.7392C88.8437 62.3053 88.8363 64.0142 89.5435 65.4752C90.2515 66.9352 91.925 68.2891 93.3891 68.7681Z" fill="#2EAE7D"/>
<path d="M81.0295 67.4629C82.0935 66.9402 83.2432 66.5256 84.4105 66.6079C85.9871 66.721 87.4244 67.7545 88.3584 69.1242C90.3407 72.0283 89.9959 76.4857 87.595 78.996C85.326 81.3695 81.2121 81.7295 78.4783 80.0315C76.1116 78.5606 75.3113 74.2133 76.4518 71.7208C77.3664 69.7223 79.1929 68.3654 81.0295 67.4629Z" fill="#F1435B"/>
<path d="M80.9586 69.9504C79.5396 67.816 78.6453 65.2809 78.3917 62.6703C78.8297 62.6247 79.2732 62.6584 79.7111 62.6128C80.2366 65.0131 80.1822 67.6305 80.9586 69.9504Z" fill="#312A2A"/>
<path d="M80.7005 69.4754C80.0772 67.9043 78.8316 66.6337 77.3407 66.0456C75.8499 65.4584 74.1359 65.5626 72.7169 66.3283C73.3208 67.8408 74.3636 69.1312 75.7899 69.7273C77.2172 70.3234 79.3046 70.1528 80.7005 69.4754Z" fill="#20795A"/>
<path d="M80.7437 59.5599C80.717 59.2415 80.6967 58.9122 80.7944 58.6097C80.8912 58.3082 81.1365 58.0384 81.4343 58.0275C81.8215 58.0136 82.1018 58.4113 82.2918 58.7763C82.8957 59.9318 83.3235 61.1935 83.5549 62.4957C83.6498 60.636 84.2574 58.811 85.2799 57.3094C85.6118 56.8224 86.2443 56.3374 86.6685 56.7312C86.9257 56.9702 86.9183 57.3947 86.8796 57.7577C86.7293 59.1711 86.4315 60.5656 85.9945 61.9076C86.7348 60.8612 87.8919 60.1699 89.109 60.0469C89.4372 60.0132 89.842 60.0677 89.9757 60.3921C90.0983 60.6916 89.9084 61.0278 89.7147 61.2817C88.9486 62.2855 87.9878 63.1156 86.9109 63.7038C87.4125 63.438 87.9463 63.1662 88.5023 63.2208C89.0583 63.2743 89.6152 63.7971 89.5239 64.3902C89.4538 64.8534 89.0444 65.1559 88.6618 65.382C87.4872 66.0763 83.5346 68.0431 82.3037 66.9283C81.721 66.4006 81.5182 64.3664 81.3495 63.5927C81.0609 62.2656 80.8581 60.9167 80.7437 59.5599Z" fill="#2EAE7D"/>
<path d="M86.0307 69.7382C85.9136 70.98 85.4295 72.1424 84.856 73.2424C84.7731 73.4031 84.6799 73.5697 84.5887 73.7274C84.5287 73.8474 84.4651 73.9565 84.4024 74.0715C82.9005 76.7614 81.2262 79.5059 79.3573 82.048C79.2503 82.1947 79.1397 82.3445 79.0272 82.4883C77.8849 84.0177 76.666 85.4678 75.3706 86.787C73.5211 88.6705 72.5926 87.6945 73.0213 85.328C73.1735 84.4859 73.3431 83.6468 73.5376 82.8097C73.5727 82.6282 73.6169 82.4417 73.6575 82.2582C74.0927 80.3896 74.6136 78.5378 75.2166 76.7198C75.2775 76.5442 75.3383 76.3697 75.3992 76.1941C75.7172 75.2687 76.0556 74.3512 76.417 73.4487C76.4843 73.2761 76.5544 73.1085 76.6282 72.9399C77.0421 71.9272 77.4856 70.9304 77.9522 69.9475C78.3025 69.2155 78.6833 68.4756 79.1342 67.812C79.2485 67.6424 79.3656 67.4778 79.4882 67.329C79.762 66.9749 80.0654 66.6496 80.401 66.3649C81.4991 65.4495 83.0655 65.0329 84.2992 65.7192C85.5983 66.4373 86.1727 68.178 86.0307 69.7382Z" fill="#F68640"/>
<path d="M75.2505 83.5674C74.6826 83.3175 74.1073 83.0646 73.5375 82.8097C73.5725 82.6282 73.6168 82.4417 73.6573 82.2582C74.2529 82.5191 74.8486 82.7809 75.4442 83.0427C75.753 83.1866 75.5622 83.7043 75.2505 83.5674Z" fill="#F46F2E"/>
<path d="M79.3571 82.048C79.2501 82.1948 79.1395 82.3445 79.027 82.4883C77.8838 81.8456 76.7119 81.2585 75.5188 80.7308C75.2072 80.5939 75.4008 80.0692 75.7115 80.2051C76.9535 80.7536 78.1705 81.3695 79.3571 82.048Z" fill="#F46F2E"/>
<path d="M78.7135 78.6053C77.6016 77.8683 76.4298 77.2385 75.2164 76.7198C75.2773 76.5442 75.3381 76.3697 75.399 76.1941C76.6575 76.7277 77.8699 77.3883 79.0233 78.156C79.311 78.3464 79.0012 78.7967 78.7135 78.6053Z" fill="#F46F2E"/>
<path d="M81.3191 75.7646C79.7674 74.8025 78.1207 74.0269 76.4169 73.4486C76.4842 73.276 76.5543 73.1084 76.628 72.9398C78.3669 73.532 80.044 74.3254 81.6326 75.3123C81.9212 75.4898 81.6068 75.9421 81.3191 75.7646Z" fill="#F46F2E"/>
<path d="M84.8558 73.2423C84.7728 73.403 84.6797 73.5696 84.5884 73.7273C83.0662 72.6918 81.3946 71.9271 79.6345 71.4788C79.3155 71.3945 79.3699 70.8361 79.7009 70.9214C81.5265 71.3886 83.2681 72.1751 84.8558 73.2423Z" fill="#F46F2E"/>
<path d="M83.6407 69.4545C83.5449 69.5854 83.3964 69.5864 83.2719 69.516C81.9784 68.7414 80.5816 68.1612 79.134 67.812C79.2484 67.6424 79.3655 67.4778 79.4881 67.329C80.9162 67.7049 82.2928 68.2881 83.5836 69.0588C83.7062 69.1371 83.7163 69.3454 83.6407 69.4545Z" fill="#F46F2E"/>
<path d="M54.8718 140.285L64.3078 148.115L103.879 140.589L100.142 74.3225L95.9264 78.754L89.6992 75.5593L86.9213 80.5066L81.1662 77.0025L77.8193 81.8466L73.0646 78.9604L70.4406 83.3919L66.0221 80.4035L63.5122 85.7059L61.6034 82.2582L59.8081 84.6287L57.3172 82.3614L54.8718 85.7059V140.285Z" fill="#C07E53"/>
<path d="M64.3078 148.115L54.8718 140.285V85.7059L57.3172 82.3614L59.8081 84.6287L61.6034 82.2582L63.5122 85.7059L64.3078 148.115Z" fill="#A55D39"/>
<path d="M79.3526 107.248C79.9242 108.803 69.5567 111.813 69.5567 111.813L69.2678 115.008L73.71 114.187L79.9307 116.455C79.9307 116.455 80.0634 117.822 80.1326 119.506C80.1437 119.716 80.1483 119.93 80.1556 120.148C80.187 121.153 80.1861 122.223 80.1169 123.15C80.1141 123.239 80.1049 123.33 80.1003 123.418C80.0561 123.879 79.9952 124.298 79.9132 124.646C79.8191 125.032 79.6965 125.328 79.5351 125.503L74.4457 124.907C74.4457 124.907 69.4288 130.248 68.3955 130.557C67.9849 130.678 66.1968 130.109 64.1918 129.38C63.2302 129.028 59.4994 127.629 58.564 127.262L57.9097 122.324L61.3448 117.177C61.7294 116.553 62.2546 115.738 62.8679 114.85L62.8664 114.848C63.1675 114.412 63.4906 113.959 63.8277 113.503C65.0523 111.851 66.4791 110.17 67.8395 109.141C68.4153 108.702 68.9793 108.384 69.5106 108.238C73.1752 107.218 78.7828 105.695 79.3526 107.248Z" fill="#C7614F"/>
<path d="M80.1168 123.15C80.114 123.239 80.1048 123.33 80.1002 123.418C79.8928 123.363 79.6226 123.289 79.2962 123.201C78.554 123.007 77.5491 122.761 76.4565 122.519C75.363 122.286 74.3626 122.146 73.6002 122.132C73.4084 122.131 73.2341 122.131 73.0792 122.129C72.9253 122.143 72.7916 122.152 72.6828 122.164C72.4596 122.178 72.3306 122.186 72.3306 122.186C72.3306 122.186 72.4412 122.115 72.6514 121.997C72.7538 121.938 72.8847 121.866 73.0359 121.788C73.1917 121.727 73.3678 121.659 73.5716 121.588C74.37 121.316 75.5539 121.178 76.7552 121.435C77.951 121.701 78.9099 122.236 79.5442 122.692C79.7784 122.862 79.9684 123.018 80.1168 123.15Z" fill="#974237"/>
<path d="M80.1326 119.506C80.1437 119.716 80.1483 119.93 80.1556 120.148L80.0256 120.116C79.2843 119.921 78.2785 119.675 77.1877 119.435C76.0924 119.2 75.092 119.06 74.3305 119.047C74.1378 119.046 73.9663 119.043 73.8142 119.044C73.6574 119.056 73.5237 119.068 73.4149 119.075C73.19 119.092 73.0646 119.101 73.0646 119.101C73.0646 119.101 73.1734 119.033 73.3808 118.912C73.485 118.855 73.6141 118.781 73.7671 118.704C73.9211 118.641 74.1018 118.572 74.301 118.502C75.105 118.23 76.2879 118.092 77.4865 118.351C78.5965 118.594 79.5038 119.073 80.1326 119.506Z" fill="#974237"/>
<path d="M62.2266 128.649C62.2266 128.649 30.8752 132.346 28.4323 131.264C25.9894 130.182 24.5524 127.244 24.5524 127.244L25.4643 110.92C25.4643 110.92 38.1856 113.484 40.3502 113.47L38.4964 118.44L59.5666 120.148L62.2266 128.649Z" fill="#C7614F"/>
<path d="M99.795 106.904C99.594 108.031 103.63 111.867 102.404 110.692C101.178 109.518 95.1048 107.418 94.5313 108.556C93.9587 109.695 100.739 116.352 100.739 116.352C100.739 116.352 94.3902 112.493 93.695 114.918C93.4682 115.711 94.1643 116.911 95.197 118.167C93.4535 118.099 92.0336 118.387 92.3757 119.606C93.1824 122.476 100.891 123.572 100.891 123.572C109.926 123.835 106.625 108.824 106.625 108.824C106.625 108.824 99.9941 105.775 99.795 106.904Z" fill="#C7614F"/>
<path d="M94.1754 35.7319L106.392 23.6552L110.346 32.6334L94.1754 35.7319Z" fill="white"/>
<path d="M88.932 34.3869L87.7048 23.2515L93.3991 24.042L88.932 34.3869Z" fill="white"/>
<path d="M94.7064 43.5356L105.771 43.5555L105.277 49.1961L94.7064 43.5356Z" fill="white"/>
</svg>
